# xmcd CD database file
#
# Track frame offsets:
#	150
#	16580
#	30815
#	45190
#	58607
#	71812
#	87262
#	97880
#	111267
#	124222
#	136310
#	156375
#	170872
#	183655
#	196147
#	210505
#	224537
#	238075
#	252475
#	266547
#	279820
#	290350
#	303865
#	317797
#	333035
#
# Disc length: 4676 seconds
#
# Revision: 1
# Processed by: cddbd v1.5.1PL2 Copyright (c) Steve Scherf et al.
# Submitted via: CDex 1.50Beta7
#
DISCID=61124219
DTITLE=Fats Waller - Honeysuckle Rose-Disc 2
DYEAR=2004
DGENRE=Jazz
TTITLE0=When Somebody Thinks You're Wonderful 
TTITLE1=African Ripples
TTITLE2=I Got Rhythm
TTITLE3=Alligator Crawl
TTITLE4=It's a Sin to Tell a Lie
TTITLE5=Until the Real Thing Comes Along
TTITLE6=Bye Bye, Baby
TTITLE7=Viper's Drag
TTITLE8=S'posin'
TTITLE9=Smarty
TTITLE10=Blue, Turning Grey Over You
TTITLE11=Keepin' Out of Mischief Now
TTITLE12=The Joint Is Jumpin'
TTITLE13=I Love to Whistle
TTITLE14=The Sheik of Araby
TTITLE15=Two Sleepy People
TTITLE16=Yacht Club Swing
TTITLE17=Squeeze Me
TTITLE18=Your Feet's Too Big
TTITLE19=I Can't Give You Anything But Love
TTITLE20=Carolina Shout
TTITLE21='Tain't Nobody's Bizness If I Do
TTITLE22=Chant of the Groove
TTITLE23=The Jitterbug Waltz
TTITLE24=Ain't Misbehavin'
EXTD=YEAR: 2004
EXTT0=
EXTT1=
EXTT2=
EXTT3=
EXTT4=
EXTT5=
EXTT6=
EXTT7=
EXTT8=
EXTT9=
EXTT10=
EXTT11=
EXTT12=
EXTT13=
EXTT14=
EXTT15=
EXTT16=
EXTT17=
EXTT18=
EXTT19=
EXTT20=
EXTT21=
EXTT22=
EXTT23=
EXTT24=
PLAYORDER=
